<?xml version="1.0" encoding="UTF-8"?>
<svg width="123px" height="144px" viewBox="0 0 123 144" version="1.1" xmlns="http://www.w3.org/2000/svg" xmlns:xlink="http://www.w3.org/1999/xlink">
    <!-- Generator: Sketch 44.1 (41455) - http://www.bohemiancoding.com/sketch -->
    <title>Group 3</title>
    <desc>Created with Sketch.</desc>
    <defs></defs>
    <g id="Page-1" stroke="none" stroke-width="1" fill="none" fill-rule="evenodd">
        <g id="azapark" transform="translate(-142.000000, 0.000000)" fill="#2F302E">
            <g id="Group-3" transform="translate(142.000000, 0.000000)">
                <path d="M18.346,38.758 C14.034,46.967 12.801,56.292 12.734,65.466 C12.485,84.283 12.751,103.115 12.601,121.948 C12.718,124.696 12.866,130.372 13.433,130.224 C20.442,130.891 21.399,130.372 24.74,130.421 C25.323,111.54 24.856,92.625 25.007,73.726 C25.174,65.984 24.19,58.008 26.639,50.499 C30.535,36.976 42.923,26.37 56.945,24.821 C71.897,22.639 87.449,31.182 93.993,44.735 C99.737,56.608 98.356,71.878 89.863,82.118 C83.167,90.46 72.113,94.456 61.641,95.821 C61.539,97.488 61.708,100.178 61.641,101.858 C72.015,102.159 87.397,101.858 93.375,101.783 C96.089,101.65 97.755,104.463 97.873,106.861 C98.338,114.72 97.275,122.615 98.272,130.476 C102.92,130.512 106.031,131.039 109.912,130.456 C110.461,108.263 109.66,86.049 109.927,63.852 C110.477,51.179 106.149,38.359 97.904,28.7 C88.98,18.293 75.426,11.866 61.656,12.049 C43.656,11.599 26.155,22.59 18.346,38.758 Z M0.762,55.926 C2.609,25.237 30.851,-0.823 61.624,0.044 C92.094,-0.64 120.085,25.153 122.034,55.541 C122.865,79.371 121.75,103.232 122.683,127.059 C123.083,134.02 118.668,141.465 111.526,142.895 C104.231,144.01 95.275,144.694 89.765,138.748 C83.218,132.221 85.701,122.282 85.434,114.022 C74.745,113.674 64.055,113.973 53.347,113.824 C52.249,112.207 50.234,110.973 50.083,108.876 C49.868,102.169 49.817,95.438 50.116,88.73 C51.449,83.533 57.477,84.366 61.557,84.382 C74.293,84.932 85.701,73.192 85.117,60.554 C85.5,48.032 74.146,36.693 61.656,37.025 C48.917,36.51 37.378,47.917 37.562,60.621 C37.412,82.768 37.612,104.932 37.495,127.075 C37.845,134.153 33.333,141.598 26.056,142.945 C18.913,143.978 10.204,144.645 4.725,138.95 C1.395,135.919 0.113,131.389 0.479,127.01 C0.729,103.315 0.163,79.604 0.762,55.926 L0.762,55.926 Z" id="Fill-1"></path>
            </g>
        </g>
    </g>
</svg>